<svg width="24" height="24" viewBox="0 0 24 24" fill="none" xmlns="http://www.w3.org/2000/svg">
<path fill-rule="evenodd" clip-rule="evenodd" d="M11.666 16.077C11.666 16.491 12.002 16.827 12.416 16.827C12.83 16.827 13.166 16.491 13.166 16.077V13.1631H16.083C16.497 13.1631 16.833 12.8271 16.833 12.4131C16.833 11.9991 16.497 11.6631 16.083 11.6631H13.166V8.75C13.166 8.336 12.83 8 12.416 8C12.002 8 11.666 8.336 11.666 8.75V11.6631H8.75C8.335 11.6631 8 11.9991 8 12.4131C8 12.8271 8.335 13.1631 8.75 13.1631H11.666V16.077Z" fill="#211A1E"/>
</svg>
