<svg width="25" height="24" viewBox="0 0 25 24" fill="none" xmlns="http://www.w3.org/2000/svg">
<g id="ic_arrow_next">
<path id="Vector" d="M22.11 11.2902L16.11 5.29019C15.9217 5.10188 15.6663 4.99609 15.4 4.99609C15.1337 4.99609 14.8783 5.10188 14.69 5.29019C14.5017 5.47849 14.3959 5.73388 14.3959 6.00019C14.3959 6.26649 14.5017 6.52188 14.69 6.71019L18.99 11.0002H3.40002C3.13481 11.0002 2.88045 11.1055 2.69292 11.2931C2.50538 11.4806 2.40002 11.735 2.40002 12.0002C2.40002 12.2654 2.50538 12.5198 2.69292 12.7073C2.88045 12.8948 3.13481 13.0002 3.40002 13.0002H18.99L14.69 17.2902C14.5963 17.3831 14.5219 17.4937 14.4711 17.6156C14.4204 17.7375 14.3942 17.8682 14.3942 18.0002C14.3942 18.1322 14.4204 18.2629 14.4711 18.3848C14.5219 18.5066 14.5963 18.6172 14.69 18.7102C14.783 18.8039 14.8936 18.8783 15.0154 18.9291C15.1373 18.9798 15.268 19.006 15.4 19.006C15.532 19.006 15.6627 18.9798 15.7846 18.9291C15.9065 18.8783 16.0171 18.8039 16.11 18.7102L22.11 12.7102C22.2038 12.6172 22.2781 12.5066 22.3289 12.3848C22.3797 12.2629 22.4058 12.1322 22.4058 12.0002C22.4058 11.8682 22.3797 11.7375 22.3289 11.6156C22.2781 11.4937 22.2038 11.3831 22.11 11.2902Z" fill="white"/>
</g>
</svg>
