<svg width="16" height="16" viewBox="0 0 16 16" fill="none" xmlns="http://www.w3.org/2000/svg">
<g id="ic_location">
<path id="Vector" d="M7.99996 1.33346C6.6217 1.30119 5.28677 1.81617 4.28726 2.7657C3.28774 3.71524 2.70503 5.02202 2.66663 6.40013C2.66663 9.78679 6.60663 13.8268 7.05996 14.2735C7.30978 14.5218 7.64771 14.6612 7.99996 14.6612C8.35221 14.6612 8.69014 14.5218 8.93996 14.2735C9.39329 13.8268 13.3333 9.78679 13.3333 6.40013C13.2949 5.02202 12.7122 3.71524 11.7127 2.7657C10.7132 1.81617 9.37822 1.30119 7.99996 1.33346ZM7.99996 8.66679C7.6044 8.66679 7.21772 8.5495 6.88882 8.32973C6.55992 8.10997 6.30358 7.79761 6.1522 7.43216C6.00082 7.06671 5.96122 6.66458 6.03839 6.27661C6.11556 5.88865 6.30604 5.53229 6.58575 5.25258C6.86545 4.97288 7.22182 4.78239 7.60978 4.70522C7.99774 4.62805 8.39987 4.66766 8.76533 4.81904C9.13078 4.97041 9.44314 5.22676 9.6629 5.55565C9.88266 5.88455 9.99996 6.27123 9.99996 6.66679C9.99996 7.19723 9.78925 7.70594 9.41417 8.08101C9.0391 8.45608 8.53039 8.66679 7.99996 8.66679Z" fill="#08332C"/>
</g>
</svg>
